<?xml version="1.0" encoding="UTF-8"?>
<svg width="4271px" height="1024px" viewBox="0 0 4271 1024" version="1.1" xmlns="http://www.w3.org/2000/svg" xmlns:xlink="http://www.w3.org/1999/xlink">
    <!-- Generator: Sketch 62 (91390) - https://sketch.com -->
    <title>Sweet-Logotype Color</title>
    <desc>Created with Sketch.</desc>
    <defs>
        <linearGradient x1="0%" y1="47.2696385%" x2="100%" y2="52.7303615%" id="linearGradient-1">
            <stop stop-color="#FF4F45" offset="0%"></stop>
            <stop stop-color="#B93AFF" offset="51.3749005%"></stop>
            <stop stop-color="#1DBFE4" offset="100%"></stop>
        </linearGradient>
    </defs>
    <g id="Sweet-Logotype-Color" stroke="none" stroke-width="1" fill="none" fill-rule="evenodd">
        <path d="M2233.02896,196.617155 C2430.24899,196.617155 2569.74912,336.865278 2569.74912,528.257217 C2569.74912,615.179887 2544.90962,643.665839 2472.60392,643.665839 L2080.3455,643.665839 L2080.3455,677.263056 C2081.09349,785.378776 2149.75274,854.786013 2264.41337,854.786013 C2324.3149,854.786013 2366.701,840.169042 2401.01504,811.68309 C2438.25871,783.197138 2451.41087,772.226618 2481.36164,772.226618 C2521.53493,772.226618 2549.30406,799.995747 2549.30406,842.35068 C2549.30406,876.695887 2528.11101,909.545114 2491.58417,935.849428 C2440.47152,978.952352 2352.08403,1005.25667 2252.00921,1005.25667 C2024.83841,1005.25667 1884.59029,871.584622 1884.59029,651.706731 L1884.59029,551.631904 C1884.59029,339.794906 2024.83841,196.617155 2233.02896,196.617155 Z M3026.45934,196.617155 C3223.67937,196.617155 3363.1795,336.865278 3363.1795,528.257217 C3363.1795,615.179887 3338.34,643.665839 3266.0343,643.665839 L2873.77588,643.665839 L2873.77588,677.263056 C2874.52387,785.378776 2943.18312,854.786013 3057.84375,854.786013 C3117.74529,854.786013 3160.13138,840.169042 3194.44543,811.68309 C3231.68909,783.197138 3244.84125,772.226618 3274.79202,772.226618 C3314.96531,772.226618 3342.73444,799.995747 3342.73444,842.35068 C3342.73444,876.695887 3321.54139,909.545114 3285.01455,935.849428 C3233.9019,978.952352 3145.51441,1005.25667 3045.43959,1005.25667 C2818.26879,1005.25667 2678.02067,871.584622 2678.02067,651.706731 L2678.02067,551.631904 C2678.02067,339.794906 2818.26879,196.617155 3026.45934,196.617155 Z M348.050553,196.632738 C421.821066,196.632738 491.945127,212.683357 547.452218,242.634123 C602.959308,272.584888 635.839701,315.687812 635.839701,360.255548 C635.839701,401.893658 606.605759,427.449982 562.786012,427.449982 C540.159315,427.449982 519.683089,420.15708 483.904235,394.569589 C428.397144,352.214656 388.940672,337.597685 337.796857,337.597685 C264.026344,337.597685 219.489773,372.659716 219.489773,426.733159 C219.489773,471.269729 249.409373,497.574044 315.886983,512.907839 L455.418283,542.858605 C593.484768,573.55736 658.466399,642.933432 658.466399,758.342054 C658.466399,911.025511 536.481698,1005.24108 334.150406,1005.24108 C249.409373,1005.24108 172.740399,987.725651 115.020505,957.026895 C55.8669633,925.611315 23.7033937,881.791569 23.7033937,832.860557 C23.7033937,789.757634 52.9373358,761.271682 96.7570827,761.271682 C121.596584,761.271682 140.57683,771.494211 174.174047,797.798526 C230.429127,842.366263 280.824953,862.811323 344.372935,862.811323 C424.002703,862.811323 472.933715,829.214106 472.933715,775.140663 C472.933715,730.604092 438.619674,697.723699 367.747623,682.389904 L245.046098,654.620776 C101.151524,623.205196 33.9259236,553.081134 33.9259236,438.420502 C33.9259236,292.313124 156.658614,196.632738 348.050553,196.632738 Z M4148.53782,777.341 C4211.36898,777.341 4262.48163,828.484815 4262.48163,890.567984 C4262.48163,953.367977 4211.36898,1004.51179 4148.53782,1004.51179 C4086.45465,1004.51179 4035.31084,953.367977 4035.31084,890.567984 C4035.31084,828.484815 4086.45465,777.341 4148.53782,777.341 Z M3649.06751,14.7309226 C3708.96904,14.7309226 3743.31425,52.0057571 3743.31425,118.452201 L3743.31425,219.275019 L3820.01439,219.275019 C3872.59185,219.275019 3902.54262,247.760971 3902.54262,294.510345 C3902.54262,341.259719 3872.59185,369.745671 3820.01439,369.745671 L3744.74789,369.745671 L3744.74789,759.822451 C3744.74789,829.946512 3763.75931,853.3212 3821.44803,853.3212 C3841.92426,853.3212 3855.07642,850.391572 3872.59185,850.391572 C3906.18907,850.391572 3929.56375,873.018269 3929.56375,908.82829 C3929.56375,937.314242 3917.15959,961.405753 3890.13845,977.487538 C3863.08614,995.00297 3823.66084,1003.79185 3771.05221,1003.79185 C3618.39992,1003.79185 3551.92231,939.49588 3551.92231,780.984334 L3551.92231,369.745671 L3512.46584,369.745671 C3460.6052,369.745671 3430.65443,341.259719 3430.65443,294.510345 C3430.65443,247.760971 3460.6052,219.275019 3512.46584,219.275019 L3555.56876,219.275019 L3555.56876,118.452201 C3555.56876,52.0057571 3589.91397,14.7309226 3649.06751,14.7309226 Z M1712.82374,208.313849 C1770.54363,208.313849 1807.07048,244.840693 1807.07048,296.701332 C1807.07048,308.388676 1804.14085,325.187284 1798.31276,347.097158 L1663.1759,842.36003 C1631.01233,958.485475 1594.51665,995.76031 1526.57423,995.76031 C1454.26853,995.76031 1416.27687,959.233465 1387.04293,842.36003 L1275.28076,435.484642 L1268.70468,435.484642 L1159.87214,842.36003 C1130.66936,959.233465 1095.60733,995.76031 1022.55364,995.76031 C950.964767,995.76031 912.256285,956.303838 882.30552,842.36003 L748.633475,348.561972 C743.52221,325.904108 741.340573,312.783117 741.340573,301.095773 C741.340573,246.305507 780.765878,208.313849 839.202596,208.313849 C888.881598,208.313849 922.478815,241.911066 932.701345,303.277411 L1029.12972,788.286587 L1037.88744,788.286587 L1154.04405,331.046539 C1175.95392,240.446252 1208.08633,208.313849 1271.63431,208.313849 C1335.93028,208.313849 1368.77951,241.911066 1392.1542,331.046539 L1509.77562,788.286587 L1518.53334,788.286587 L1620.07298,303.994235 C1631.76032,243.375879 1665.35754,208.313849 1712.82374,208.313849 Z M2235.92742,345.65416 C2140.96386,345.65416 2080.3455,415.778222 2080.3455,520.216324 L2080.3455,521.681138 L2385.68125,521.681138 L2385.68125,520.216324 C2385.68125,414.313408 2327.24453,345.65416 2235.92742,345.65416 Z M3029.3578,345.65416 C2934.39424,345.65416 2873.77588,415.778222 2873.77588,520.216324 L2873.77588,521.681138 L3179.11163,521.681138 L3179.11163,520.216324 C3179.11163,414.313408 3120.67491,345.65416 3029.3578,345.65416 Z" id="Combined-Shape" fill="url(#linearGradient-1)"></path>
    </g>
</svg>