<svg id="Layer_1" data-name="Layer 1" xmlns="http://www.w3.org/2000/svg" viewBox="0 0 801.91 302.24"><defs><style>.cls-1{fill:#f26122;}</style></defs><title>Autobooks Logo</title><path class="cls-1" d="M96,299.62H73V289.36a11.17,11.17,0,0,0-1.15,1c-6.58,7.44-15,10.92-24.77,11.7-20.6,1.64-38-12.08-44-30.1-5.53-16.6-3.78-32.43,6.61-46.61,10-13.58,23.66-19.45,40.55-17.24a33.55,33.55,0,0,1,21.85,11.64,7,7,0,0,0,.76.63V210.21H96ZM48,229.58c-14.39,0-24.7,10.44-24.77,25.13s10.1,25.34,24.61,25.48,25-10.52,25-25.32C73,240.23,62.5,229.6,48,229.58Z"/><path class="cls-1" d="M348.45,254.86a47.17,47.17,0,0,1-47.63,47.38c-26.62-.21-47.3-21-47.21-47.52.1-26.16,20.35-47.06,47.34-47.16A47.06,47.06,0,0,1,348.45,254.86Zm-47.56,24.73c14,.06,24.31-10.35,24.43-24.6s-10.26-24.76-24.22-24.8-24.31,10.32-24.35,24.58S286.87,279.52,300.89,279.59Z"/><path class="cls-1" d="M187,210.19V299.6H164V290a8.14,8.14,0,0,0-1,.88c-5.28,6.95-12.58,10.12-21,11.05-8,.88-15.63-.22-22.63-4.45-8.55-5.15-13.17-13-15-22.55a54.47,54.47,0,0,1-1-10.19c-.09-17.68,0-35.36,0-53,0-.49.07-1,.11-1.55h23v2.26c0,16.19-.08,32.38.07,48.56a31,31,0,0,0,1.57,9.67c1.78,5.17,5.75,8.28,11.13,9.42,6.58,1.38,12.75.6,18.11-3.82,4.11-3.38,5.64-8.07,6.3-13.1a52.7,52.7,0,0,0,.34-6.53q0-22,0-44.07v-2.35Z"/><path class="cls-1" d="M252.12,210v22.3H231.89v2.21c0,11.27,0,22.54,0,33.81a17.86,17.86,0,0,0,.51,4.79c1,3.6,3.85,5.44,8.46,5.7,1.86.1,3.73.12,5.59.14s3.61,0,5.57,0V300c-5.41.09-10.87.5-16.28.18a45.37,45.37,0,0,1-11.83-2.27c-8.34-2.83-12.72-9.25-14.13-17.69a82.27,82.27,0,0,1-1-12.25c-.13-11.08,0-22.16,0-33.24v-2.44H193.31V210.06h15.45V192l23.12-7v25Z"/><path class="cls-1" d="M352.87,177.75h22.91v42.52c.67-.63,1-.92,1.32-1.26,6.21-7.16,14.21-10.58,23.49-11.48,23.06-2.22,42.48,14,46.83,36.09,3.92,19.89-1.09,37.32-17.6,49.84C416.08,303.88,400.77,305,385.29,297c-3.45-1.78-6.25-4.81-9.33-7.25v9.63H352.87Zm72.66,76.9a26.9,26.9,0,0,0-3.16-13.08c-5.7-10.15-18.24-14.75-29.89-11-10,3.25-16.07,11.72-16.58,23.08-.77,17.15,13.8,29.37,30.55,25.62C418.24,276.67,425.5,267.29,425.53,254.65Z"/><path class="cls-1" d="M651.63,177.75h22.91v70.87l.45.19,30.47-38.94h27.59l-36,44.23c12.27,15,24.54,30,37,45.23H707.18L674.7,258.84v40.51H651.63Z"/><path class="cls-1" d="M548,254.55a47.42,47.42,0,1,1-47.57-47.26A47.21,47.21,0,0,1,548,254.55Zm-71.7,0c0,14.3,10.14,24.74,24.16,24.8s24.3-10.38,24.4-24.62S514.54,230,500.58,229.94,476.27,240.29,476.25,254.55Z"/><path class="cls-1" d="M647.21,254.68c-.32,27.14-21.27,47.34-47.7,47.26a46.73,46.73,0,0,1-47.14-47.52c.14-26.26,20.51-47.08,47.41-47.09A47,47,0,0,1,647.21,254.68Zm-71.7,0c0,14.3,10.27,24.68,24.29,24.67s24.27-10.53,24.28-24.75-10.4-24.69-24.36-24.66S575.47,240.42,575.51,254.68Z"/><path class="cls-1" d="M800.13,226.33,780.59,237c-.92-1.34-1.66-2.64-2.61-3.76a15.73,15.73,0,0,0-17.34-4.33,9.65,9.65,0,0,0-3,1.84,5.73,5.73,0,0,0,.68,9c3.74,2.66,8.17,3.56,12.46,4.78,6.32,1.82,12.68,3.51,18.47,6.81,8.71,5,12.79,12.55,12.64,22.46-.19,12.08-7,21.25-19.21,25.36-13,4.38-26,3.94-38.44-2-7.27-3.47-12.43-9.17-15.9-16.53l19.79-11.14a46.58,46.58,0,0,0,3.12,5.15c3.88,4.92,9.27,6.54,15.24,6.25a22.66,22.66,0,0,0,7.75-1.59c5-2.15,5.55-8.21.77-10.79-4-2.15-8.46-3.46-12.81-4.86-6-1.94-12.08-3.7-17.71-6.75-14.32-7.73-15.35-25.37-8-36.18,5.18-7.56,12.82-11.19,21.56-12.68a42.5,42.5,0,0,1,26,3.29A36.21,36.21,0,0,1,800.13,226.33Z"/><path class="cls-1" d="M476.61.1a63.87,63.87,0,0,0-40.77,13.45,5.12,5.12,0,0,1-6.76-.45L416,0H381.6l5.47,5.46,0-.06,26.87,26.78a26.29,26.29,0,0,0,35.48,1.65,39.72,39.72,0,0,1,24.91-9.43,39.9,39.9,0,1,1,.83,79.79,39.77,39.77,0,0,1-26.9-10.46h0l0,0q-1.29-1.17-2.46-2.46L411.36,56.92v0l-37.3-37.29,0,0a64.2,64.2,0,1,0-6.49,95.11,5.15,5.15,0,0,1,6.84.38l13.35,13.35h34.38l-20.06-20.06L389.55,96a26.42,26.42,0,0,0-35.8-1.29,39.9,39.9,0,1,1,.21-60.6h0a40.3,40.3,0,0,1,4.09,4.07L391.7,71.7v0l38,38,0,0A64.19,64.19,0,1,0,476.61.1Z"/></svg>