<?xml version="1.0" encoding="utf-8"?>
<!-- Generator: Adobe Illustrator 15.0.0, SVG Export Plug-In . SVG Version: 6.00 Build 0)  -->
<!DOCTYPE svg PUBLIC "-//W3C//DTD SVG 1.1//EN" "http://www.w3.org/Graphics/SVG/1.1/DTD/svg11.dtd">
<svg version="1.1" xmlns="http://www.w3.org/2000/svg" xmlns:xlink="http://www.w3.org/1999/xlink" x="0px" y="0px" width="300px"
	 height="122px" viewBox="0 0 300 122" enable-background="new 0 0 300 122" xml:space="preserve">
<g id="Layer_2">
</g>
<g id="Layer_1">
	<g>
		<g>
			<path fill="#54B948" d="M135.241,105.641l-25.762-43.773H65.716l-9.85,16.756h41.465l12.003,20.42H43.863l-9.874,16.795h95.244
				c2.478,0,4.767-1.295,6.006-3.4C136.479,110.336,136.479,107.744,135.241,105.641z"/>
			<path fill="#54B948" d="M77.831,8.093c-1.239-2.104-3.529-3.401-6.007-3.401c-2.478,0-4.769,1.296-6.007,3.401L8.406,105.641
				c-1.239,2.104-1.238,4.695,0,6.797c1.24,2.105,3.528,3.4,6.006,3.4h10.026l47.385-80.605l10.919,18.575h21.992L77.831,8.093z"/>
		</g>
		<g>
			<polygon points="60.807,61.867 50.957,78.623 55.866,78.623 65.716,61.867 			"/>
			<polygon points="38.954,99.043 29.081,115.838 33.989,115.838 43.863,99.043 			"/>
			<polygon points="82.743,53.808 85.071,57.768 107.066,57.768 104.735,53.808 			"/>
		</g>
	</g>
	<g>
		<path d="M212.033,50.68c0,0.705-0.238,1.296-0.712,1.77c-0.476,0.476-1.065,0.713-1.771,0.713c-0.98,0-1.777-0.46-2.391-1.38
			l-4.527-6.572h-21.511l-4.528,6.572c-0.49,0.721-1.018,1.081-1.585,1.081s-1.111-0.185-1.632-0.552
			c-0.582-0.398-0.873-0.865-0.873-1.402c0-0.168,0.045-0.321,0.138-0.459l16.134-24.66c0.658-1.011,1.792-1.517,3.4-1.517
			c1.195,0,1.992,0.337,2.391,1.012c0.031,0.045,0.065,0.111,0.104,0.195c0.039,0.084,0.096,0.188,0.172,0.311l17.1,24.2
			C212.002,50.098,212.033,50.328,212.033,50.68z M199.646,41.005L191.9,29.583l-7.791,11.423H199.646z"/>
		<path d="M219.318,50.773c0,1.209-0.597,1.814-1.793,1.814c-1.18,0-1.868-0.054-2.068-0.16c-0.658-0.245-0.988-0.797-0.988-1.654
			V26.388c0-1.195,0.598-1.792,1.793-1.792c1.119,0,1.816,0.046,2.092,0.138c0.643,0.215,0.965,0.766,0.965,1.654V50.773z"/>
		<path d="M236.647,32.525c0,1.501-0.597,2.252-1.793,2.252h-7.4v15.996c0,1.209-0.598,1.814-1.792,1.814
			c-1.195,0-1.893-0.054-2.092-0.16c-0.644-0.23-0.965-0.781-0.965-1.654V31.076c0-4.335,3.623-6.503,10.871-6.503
			c1.24,0,2.014,0.069,2.32,0.207c0.566,0.275,0.851,0.958,0.851,2.045c0,1.195-0.597,1.792-1.793,1.792
			c-2.175,0-3.593,0.047-4.251,0.139c-2.053,0.307-3.08,0.965-3.08,1.977h7.331C236.051,30.732,236.647,31.33,236.647,32.525z"/>
		<path d="M264.623,45.968c0,4.413-3.309,6.619-9.928,6.619h-11.859c-2.543,0-4.742-0.467-6.596-1.401
			c-2.498-1.195-3.746-2.857-3.746-4.987v-2.804c0-2.298,1.188-4.022,3.562-5.171c1.762-0.889,3.968-1.333,6.619-1.333h17.145
			c-0.261-1.548-2.451-2.321-6.573-2.321c-0.169,0-0.372,0.004-0.609,0.012s-0.509,0.02-0.815,0.034
			c-0.016,0.015-0.092,0.022-0.23,0.022h-0.206h-0.368h-0.574c-1.195,0-1.793-0.758-1.793-2.275c0-1.209,0.598-1.814,1.793-1.814
			c3.877,0,6.842,0.268,8.895,0.804c3.523,0.997,5.285,2.987,5.285,5.976V45.968z M259.866,44.82c0-0.215-0.004-0.482-0.012-0.805
			c-0.008-0.321-0.019-0.697-0.034-1.126s-0.027-0.804-0.035-1.126s-0.011-0.59-0.011-0.805h-17.214
			c-1.012,0-2.053,0.184-3.126,0.552c-1.394,0.476-2.091,1.096-2.091,1.862v2.78c0,0.812,0.719,1.433,2.16,1.861
			c0.918,0.337,1.984,0.506,3.194,0.506h12.043c1.808,0,3.048-0.176,3.723-0.528C259.398,47.517,259.866,46.459,259.866,44.82z"/>
		<path d="M159.363,81.973c0,3.355-1.579,5.639-4.737,6.85c-2.021,0.781-5.023,1.172-9.007,1.172c-1.21,0-1.815-0.797-1.815-2.391
			c0-1.211,0.605-1.814,1.815-1.814c2.574,0,4.359-0.115,5.355-0.346c2.19-0.537,3.285-1.67,3.285-3.402V63.795
			c0-1.195,0.596-1.793,1.786-1.793c1.157,0,1.891,0.045,2.196,0.137c0.746,0.199,1.121,0.752,1.121,1.656V81.973z"/>
		<path d="M194.25,83.375c0,4.412-3.311,6.619-9.929,6.619h-11.858c-2.544,0-4.742-0.467-6.596-1.402
			c-2.498-1.195-3.747-2.857-3.747-4.986v-2.805c0-2.297,1.188-4.021,3.562-5.17c1.763-0.891,3.969-1.334,6.619-1.334h17.145
			c-0.261-1.547-2.451-2.322-6.573-2.322c-0.168,0-0.371,0.006-0.609,0.014c-0.236,0.006-0.509,0.018-0.814,0.033
			c-0.016,0.016-0.092,0.023-0.23,0.023h-0.206h-0.368h-0.575c-1.194,0-1.792-0.76-1.792-2.275c0-1.211,0.598-1.816,1.792-1.816
			c3.876,0,6.842,0.27,8.895,0.805c3.524,0.996,5.286,2.988,5.286,5.977V83.375z M189.492,82.227c0-0.215-0.003-0.484-0.011-0.805
			c-0.008-0.322-0.02-0.697-0.035-1.127c-0.015-0.428-0.026-0.805-0.034-1.125c-0.008-0.322-0.012-0.59-0.012-0.805h-17.214
			c-1.011,0-2.053,0.184-3.126,0.551c-1.394,0.475-2.091,1.096-2.091,1.861v2.781c0,0.812,0.72,1.434,2.161,1.861
			c0.919,0.338,1.982,0.506,3.193,0.506h12.043c1.809,0,3.049-0.176,3.724-0.527C189.025,84.922,189.492,83.865,189.492,82.227z"/>
		<path d="M226.656,88.178c0,1.211-0.605,1.816-1.816,1.816c-1.195,0-1.892-0.055-2.091-0.16c-0.659-0.23-0.988-0.783-0.988-1.656
			v-14.02c0-0.994-0.828-1.646-2.482-1.953c-0.291-0.061-0.739-0.104-1.345-0.125c-0.605-0.023-1.367-0.035-2.287-0.035h-8.365
			c-0.843,0-1.551,0.016-2.126,0.045c-0.573,0.031-1.03,0.078-1.366,0.139c-1.563,0.307-2.346,0.957-2.346,1.953v13.996
			c0,1.211-0.598,1.816-1.792,1.816s-1.892-0.055-2.091-0.16c-0.645-0.23-0.966-0.783-0.966-1.656V74.229
			c0-4.184,3.708-6.275,11.124-6.275h7.928c7.34,0,11.01,2.076,11.01,6.229V88.178z"/>
		<path d="M260.394,89.258c0,2.529-1.577,4.383-4.734,5.562c-2.099,0.844-4.757,1.264-7.974,1.264h-2.023
			c-1.21,0-1.815-0.758-1.815-2.275c0-1.195,0.605-1.793,1.815-1.793h3.517c0.612,0,1.762-0.221,3.446-0.666
			c1.748-0.506,2.674-1.018,2.781-1.539H242.1c-3.141,0-5.723-0.391-7.744-1.172c-2.942-1.119-4.413-2.996-4.413-5.631v-8.182
			c0-4.627,4.565-6.941,13.697-6.941c0.245,0,0.544,0.004,0.896,0.012s0.774,0.02,1.264,0.035c0.016,0.014,0.13,0.021,0.345,0.021
			h0.346h0.574h0.896c2.896,0,5.517,0.43,7.86,1.287c3.049,1.195,4.573,3.072,4.573,5.631V89.258z M255.498,85.766V75.078
			c0-1.088-0.896-1.906-2.688-2.459c-1.456-0.398-2.812-0.598-4.068-0.598h-7.653c-1.808,0-3.103,0.092-3.884,0.275
			c-1.609,0.398-2.413,1.211-2.413,2.438v8.205c0,1.883,2.405,2.826,7.216,2.826H255.498z"/>
		<path d="M293.626,83.145c0,2.514-1.24,4.352-3.723,5.516c-1.761,0.889-4.106,1.334-7.032,1.334h-8.067
			c-2.665,0-5.079-0.453-7.239-1.355c-2.666-1.195-3.999-3.027-3.999-5.494v-8.111c0-2.467,1.325-4.336,3.976-5.609
			c1.946-0.98,4.359-1.471,7.24-1.471h8.09c7.17,0,10.755,2.346,10.755,7.033V83.145z M288.708,83.145v-8.48
			c0-1.746-1.991-2.619-5.975-2.619h-7.884c-1.471,0-2.789,0.184-3.953,0.551c-1.654,0.537-2.481,1.348-2.481,2.438v8.111
			c0,1.043,0.843,1.809,2.528,2.299c1.117,0.322,2.428,0.482,3.93,0.482h7.883c1.271,0,2.475-0.184,3.607-0.551
			C287.928,84.869,288.708,84.125,288.708,83.145z"/>
	</g>
</g>
<g id="Layer_3">
</g>
</svg>
